SplineFontDB: 3.2
FontName: mt_wolf
FullName: mt_wolf
FamilyName: SVGFont
Weight: Regular
Copyright: 
Version: 
ItalicAngle: 0
UnderlinePosition: 0
UnderlineWidth: 0
Ascent: 800
Descent: 200
InvalidEm: 0
LayerCount: 2
Layer: 0 0 "Back" 1
Layer: 1 0 "Fore" 0
HasVMetrics: 1
XUID: [1021 881 1847644375 12838]
OS2Version: 0
OS2_WeightWidthSlopeOnly: 0
OS2_UseTypoMetrics: 0
CreationTime: 1757076072
ModificationTime: 1757080083
PfmFamily: 17
TTFWeight: 400
TTFWidth: 5
LineGap: 90
VLineGap: 90
OS2TypoAscent: 0
OS2TypoAOffset: 1
OS2TypoDescent: 0
OS2TypoDOffset: 1
OS2TypoLinegap: 90
OS2WinAscent: 0
OS2WinAOffset: 1
OS2WinDescent: 0
OS2WinDOffset: 1
HheadAscent: 0
HheadAOffset: 1
HheadDescent: 0
HheadDOffset: 1
OS2Vendor: 'PfEd'
MarkAttachClasses: 1
DEI: 91125
Encoding: Custom
UnicodeInterp: none
NameList: AGL For New Fonts
DisplaySize: -48
AntiAlias: 1
FitToEm: 0
WinInfo: 0 38 11
BeginPrivate: 0
EndPrivate
BeginChars: 60 38

StartChar: .notdef
Encoding: 0 0 0
Width: 1000
VWidth: 0
HStem: -200 1000<0 1000>
VStem: 0 1000<-200 800>
LayerCount: 2
Fore
SplineSet
0 -200 m 1
 0 800 l 1
 1000 800 l 1
 1000 -200 l 1
 0 -200 l 1
EndSplineSet
Validated: 1
EndChar

StartChar: zero
Encoding: 17 48 1
Width: 1000
VWidth: 0
HStem: -150 200<421 750> 550 200<250 579>
VStem: 50 200<167 550> 750 200<50 433>
LayerCount: 2
Fore
SplineSet
50 750 m 1
 950 750 l 1
 950 -150 l 1
 50 -150 l 1
 50 750 l 1
250 550 m 1
 250 167 l 1
 579 550 l 1
 250 550 l 1
750 433 m 1
 421 50 l 1
 750 50 l 1
 750 433 l 1
EndSplineSet
Validated: 1
EndChar

StartChar: one
Encoding: 18 49 2
Width: 1000
VWidth: 0
HStem: -150 21G<483 517> -150 21G<483 517> 550 200<250 400>
VStem: 400 200<-143.553 550>
LayerCount: 2
Fore
SplineSet
250 750 m 1xb0
 500 750 l 2
 534 750 567 747 600 739 c 1
 600 -139 l 1
 567 -147 534 -150 500 -150 c 0
 466 -150 433 -147 400 -139 c 1
 400 550 l 1
 250 550 l 1
 250 750 l 1xb0
EndSplineSet
Validated: 1
EndChar

StartChar: two
Encoding: 19 50 3
Width: 1000
VWidth: 0
HStem: -150 200<250 950> 100 200<250 750> 500 250<50 250> 550 200<250 750>
VStem: 750 200<300 550>
LayerCount: 2
Fore
SplineSet
50 750 m 1xe8
 950 750 l 1
 950 100 l 1
 250 100 l 1
 250 50 l 1
 950 50 l 1
 950 -150 l 1
 50 -150 l 1
 50 300 l 1
 750 300 l 1
 750 550 l 1
 250 550 l 1xd8
 250 500 l 1
 50 500 l 1
 50 750 l 1xe8
EndSplineSet
Validated: 1
EndChar

StartChar: three
Encoding: 20 51 4
Width: 1000
VWidth: 0
HStem: -150 200<50 750> 300 200<50 750> 550 200<50 750 950 1000>
VStem: 750 200<50 300 500 550>
LayerCount: 2
Fore
SplineSet
50 750 m 1
 1000 750 l 1
 1000 550 l 1
 950 550 l 1
 950 -150 l 1
 50 -150 l 1
 50 50 l 1
 750 50 l 1
 750 300 l 1
 50 300 l 1
 50 500 l 1
 750 500 l 1
 750 550 l 1
 50 550 l 1
 50 750 l 1
EndSplineSet
Validated: 1
EndChar

StartChar: four
Encoding: 21 52 5
Width: 1000
VWidth: 0
HStem: -150 21G<750 1000> -150 21G<750 1000> 300 200<250 750> 730 20G<50 250 750 950>
VStem: 50 200<500 750> 750 250<-150 50> 750 200<50 300 500 750>
LayerCount: 2
Fore
SplineSet
50 750 m 1xba
 250 750 l 1
 250 500 l 1
 750 500 l 1
 750 750 l 1
 950 750 l 1
 950 50 l 1xba
 1000 50 l 1
 1000 -150 l 1
 750 -150 l 1xbc
 750 300 l 1
 50 300 l 1
 50 750 l 1xba
EndSplineSet
Validated: 1
EndChar

StartChar: five
Encoding: 22 53 6
Width: 1000
VWidth: 0
HStem: -150 200<50 750> 300 200<250 750> 550 200<0 50 250 950>
VStem: 750 200<50 300>
LayerCount: 2
Fore
SplineSet
0 750 m 1
 950 750 l 1
 950 550 l 1
 250 550 l 1
 250 500 l 1
 950 500 l 1
 950 -150 l 1
 50 -150 l 1
 50 50 l 1
 750 50 l 1
 750 300 l 1
 50 300 l 1
 50 550 l 1
 0 550 l 1
 0 750 l 1
EndSplineSet
Validated: 1
EndChar

StartChar: six
Encoding: 23 54 7
Width: 1000
VWidth: 0
HStem: -150 200<250 750> 300 200<250 750> 550 200<250 500>
VStem: 50 200<50 300 500 550> 750 200<50 300>
LayerCount: 2
Fore
SplineSet
50 750 m 1
 500 750 l 1
 500 550 l 1
 250 550 l 1
 250 500 l 1
 950 500 l 1
 950 -150 l 1
 50 -150 l 1
 50 750 l 1
250 300 m 1
 250 50 l 1
 750 50 l 1
 750 300 l 1
 250 300 l 1
EndSplineSet
Validated: 1
EndChar

StartChar: seven
Encoding: 24 55 8
Width: 1000
VWidth: 0
HStem: -150 21G<750 950> -150 21G<750 950> 550 200<50 750>
VStem: 750 200<-150 550>
LayerCount: 2
Fore
SplineSet
50 750 m 1xb0
 950 750 l 1
 950 -150 l 1
 750 -150 l 1
 750 550 l 1
 50 550 l 1
 50 750 l 1xb0
EndSplineSet
Validated: 1
EndChar

StartChar: eight
Encoding: 25 56 9
Width: 1000
VWidth: 0
HStem: -150 200<250 750> 100 200<250 750> 550 200<250 750>
VStem: 50 200<50 100 300 550> 750 200<50 100 300 550>
LayerCount: 2
Fore
SplineSet
50 750 m 1
 950 750 l 1
 950 -150 l 1
 50 -150 l 1
 50 750 l 1
250 550 m 1
 250 300 l 1
 750 300 l 1
 750 550 l 1
 250 550 l 1
250 100 m 1
 250 50 l 1
 750 50 l 1
 750 100 l 1
 250 100 l 1
EndSplineSet
Validated: 1
EndChar

StartChar: nine
Encoding: 26 57 10
Width: 1000
VWidth: 0
HStem: -150 21G<750 1000> -150 21G<750 1000> 300 200<250 750> 550 200<250 750>
VStem: 750 250<-150 50> 750 200<50 300 500 550>
LayerCount: 2
Fore
SplineSet
50 750 m 1xb4
 950 750 l 1
 950 50 l 1xb4
 1000 50 l 1
 1000 -150 l 1
 750 -150 l 1xb8
 750 300 l 1
 50 300 l 1
 50 750 l 1xb4
250 550 m 1
 250 500 l 1
 750 500 l 1
 750 550 l 1
 250 550 l 1
EndSplineSet
Validated: 1
EndChar

StartChar: A
Encoding: 34 65 11
Width: 1000
VWidth: 0
HStem: -150 21G<50 250 750 950> -150 21G<50 250 750 950> 100 200<250 750> 550 200<250 750>
VStem: 50 200<-150 100 300 550> 750 200<-150 100 300 550>
LayerCount: 2
Fore
SplineSet
50 750 m 1xbc
 950 750 l 1
 950 -150 l 1
 750 -150 l 1
 750 100 l 1
 250 100 l 1
 250 -150 l 1
 50 -150 l 1
 50 750 l 1xbc
250 550 m 1
 250 300 l 1
 750 300 l 1
 750 550 l 1
 250 550 l 1
EndSplineSet
Validated: 1
EndChar

StartChar: B
Encoding: 35 66 12
Width: 1000
VWidth: 0
HStem: -150 200<0 50 250 750> 300 200<250 750> 550 200<0 50 250 750>
VStem: 50 200<50 300 500 550> 750 200<50 300 500 550>
LayerCount: 2
Fore
SplineSet
0 750 m 1
 950 750 l 1
 950 -150 l 1
 0 -150 l 1
 0 50 l 1
 50 50 l 1
 50 550 l 1
 0 550 l 1
 0 750 l 1
250 550 m 1
 250 500 l 1
 750 500 l 1
 750 550 l 1
 250 550 l 1
250 300 m 1
 250 50 l 1
 750 50 l 1
 750 300 l 1
 250 300 l 1
EndSplineSet
Validated: 1
EndChar

StartChar: C
Encoding: 36 67 13
Width: 1000
VWidth: 0
HStem: -150 200<401.931 598.661> 550 200<401.931 598.661>
VStem: 50 200<201.931 398.069>
LayerCount: 2
Fore
SplineSet
500 750 m 0
 710 750 892 605 939 400 c 1
 729 400 l 1
 689 491 599 550 500 550 c 0
 362 550 250 438 250 300 c 0
 250 162 362 50 500 50 c 0
 599 50 689 109 729 200 c 1
 939 200 l 1
 892 -4 710 -149 500 -150 c 0
 381 -150 266 -103 182 -18 c 0
 97 66 50 181 50 300 c 0
 50 419 97 534 182 618 c 0
 266 703 381 750 500 750 c 0
EndSplineSet
Validated: 1
EndChar

StartChar: D
Encoding: 37 68 14
Width: 1000
VWidth: 0
HStem: -150 200<0 50 250 597.281> 550 200<250 597.281>
VStem: 50 200<50 550> 750 200<201.931 398.069>
LayerCount: 2
Fore
SplineSet
50 750 m 1
 500 750 l 2
 619 750 734 703 818 618 c 0
 903 534 950 419 950 300 c 0
 950 181 903 66 818 -18 c 0
 734 -103 619 -150 500 -150 c 2
 0 -150 l 1
 0 50 l 1
 50 50 l 1
 50 750 l 1
250 550 m 1
 250 50 l 1
 500 50 l 2
 638 50 750 162 750 300 c 0
 750 438 638 550 500 550 c 2
 250 550 l 1
EndSplineSet
Validated: 1
EndChar

StartChar: E
Encoding: 38 69 15
Width: 1000
VWidth: 0
HStem: -150 200<250 950> 100 200<250 950> 550 200<250 950>
VStem: 50 200<50 100 300 550>
LayerCount: 2
Fore
SplineSet
50 750 m 1
 950 750 l 1
 950 550 l 1
 250 550 l 1
 250 300 l 1
 950 300 l 1
 950 100 l 1
 250 100 l 1
 250 50 l 1
 950 50 l 1
 950 -150 l 1
 50 -150 l 1
 50 750 l 1
EndSplineSet
Validated: 1
EndChar

StartChar: F
Encoding: 39 70 16
Width: 1000
VWidth: 0
HStem: -150 21G<0 250> -150 21G<0 250> 300 200<250 950> 550 200<250 950>
VStem: 0 250<-150 50> 50 200<50 300 500 550>
LayerCount: 2
Fore
SplineSet
50 750 m 1xb4
 950 750 l 1
 950 550 l 1
 250 550 l 1
 250 500 l 1
 950 500 l 1
 950 300 l 1
 250 300 l 1xb4
 250 -150 l 1
 0 -150 l 1
 0 50 l 1xb8
 50 50 l 1
 50 750 l 1xb4
EndSplineSet
Validated: 1
EndChar

StartChar: G
Encoding: 40 71 17
Width: 1000
VWidth: 0
HStem: -150 200<402.719 500 874 950> 550 200<401.931 598.661>
VStem: 50 200<201.931 398.069> 750 200<-150 50>
LayerCount: 2
Fore
SplineSet
500 750 m 0
 710 750 892 605 939 400 c 1
 729 400 l 1
 689 491 599 550 500 550 c 0
 362 550 250 438 250 300 c 0
 250 162 362 50 500 50 c 1
 500 -150 l 1
 381 -150 266 -103 182 -18 c 0
 97 66 50 181 50 300 c 0
 50 419 97 534 182 618 c 0
 266 703 381 750 500 750 c 0
501 50 m 1
 600 50 690 109 729 200 c 1
 939 200 l 1
 926 146 905 96 874 50 c 1
 950 50 l 1
 950 -150 l 1
 750 -150 l 1
 750 50 l 1
 501 50 l 1
EndSplineSet
Validated: 1
EndChar

StartChar: H
Encoding: 41 72 18
Width: 1000
VWidth: 0
HStem: -150 21G<50 250 750 950> -150 21G<50 250 750 950> 100 200<250 750> 730 20G<50 250 750 1000>
VStem: 50 200<-150 100 300 750> 750 250<550 750> 750 200<-150 100 300 550>
LayerCount: 2
Fore
SplineSet
50 750 m 1xba
 250 750 l 1
 250 300 l 1
 750 300 l 1xba
 750 750 l 1
 1000 750 l 1
 1000 550 l 1xbc
 950 550 l 1
 950 -150 l 1
 750 -150 l 1
 750 100 l 1
 250 100 l 1
 250 -150 l 1
 50 -150 l 1
 50 750 l 1xba
EndSplineSet
Validated: 1
EndChar

StartChar: I
Encoding: 42 73 19
Width: 1000
VWidth: 0
HStem: -150 200<50 400 600 950> 550 200<50 400 600 950> 780 20G<400 600>
VStem: 400 200<50 550 750 800>
LayerCount: 2
Fore
SplineSet
400 800 m 1
 600 800 l 1
 600 750 l 1
 950 750 l 1
 950 550 l 1
 600 550 l 1
 600 50 l 1
 950 50 l 1
 950 -150 l 1
 50 -150 l 1
 50 50 l 1
 400 50 l 1
 400 550 l 1
 50 550 l 1
 50 750 l 1
 400 750 l 1
 400 800 l 1
EndSplineSet
Validated: 1
EndChar

StartChar: J
Encoding: 43 74 20
Width: 1000
VWidth: 0
HStem: -150 200<50 597.281> 550 200<50 750>
VStem: 750 200<202.719 550>
LayerCount: 2
Fore
SplineSet
50 750 m 1
 950 750 l 1
 950 300 l 2
 950 181 903 66 818 -18 c 0
 734 -103 619 -150 500 -150 c 2
 50 -150 l 1
 50 50 l 1
 200 50 350 50 500 50 c 0
 638 50 750 162 750 300 c 2
 750 550 l 1
 50 550 l 1
 50 750 l 1
EndSplineSet
Validated: 1
EndChar

StartChar: K
Encoding: 44 75 21
Width: 1000
VWidth: 0
HStem: -150 21G<0 250 732.88 950> -150 21G<0 250 732.88 950> 100 200<250 364> 730 20G<50 250 732.844 950>
VStem: 0 250<-150 0> 50 200<0 100 300 750>
LayerCount: 2
Fore
SplineSet
50 750 m 1xb4
 250 750 l 1
 250 300 l 1
 364 300 l 1
 750 750 l 1
 950 750 l 1
 950 550 l 1
 850 550 l 1
 636 300 l 1
 850 50 l 1
 950 50 l 1
 950 -150 l 1
 750 -150 l 1
 536 100 l 1
 250 100 l 1xb4
 250 -150 l 1
 0 -150 l 1
 0 0 l 1xb8
 50 0 l 1
 50 750 l 1xb4
EndSplineSet
Validated: 1
EndChar

StartChar: L
Encoding: 45 76 22
Width: 1000
VWidth: 0
HStem: -150 200<250 950> 730 20G<50 250>
VStem: 50 200<50 750>
LayerCount: 2
Fore
SplineSet
50 750 m 1
 250 750 l 1
 250 50 l 1
 950 50 l 1
 950 -150 l 1
 50 -150 l 1
 50 750 l 1
EndSplineSet
Validated: 1
EndChar

StartChar: M
Encoding: 46 77 23
Width: 1000
VWidth: 0
HStem: -150 21G<50 250 483 517 750 950> -150 21G<50 250 483 517 750 950> 550 200<250 400 600 750 950 1000> 780 20G<50 250>
VStem: 50 200<-150 550 750 800> 400 200<-143.553 550> 750 200<-150 550>
CounterMasks: 1 0e
LayerCount: 2
Fore
SplineSet
50 800 m 1xbe
 250 800 l 1
 250 750 l 1
 1000 750 l 1
 1000 550 l 1
 950 550 l 1
 950 -150 l 1
 750 -150 l 1
 750 550 l 1
 600 550 l 1
 600 -139 l 1
 567 -147 534 -150 500 -150 c 0
 466 -150 433 -147 400 -139 c 1
 400 550 l 1
 250 550 l 1
 250 -150 l 1
 50 -150 l 1
 50 800 l 1xbe
EndSplineSet
Validated: 1
EndChar

StartChar: N
Encoding: 47 78 24
Width: 1000
VWidth: 0
HStem: -150 21G<50 250 750 950> -150 21G<50 250 750 950> 550 200<401.931 598.069>
VStem: 50 200<-150 397.281> 750 200<-150 397.281>
LayerCount: 2
Fore
SplineSet
500 750 m 0xb8
 619 750 734 703 818 618 c 0
 903 534 950 419 950 300 c 2
 950 -150 l 1
 750 -150 l 1
 750 300 l 2
 750 438 638 550 500 550 c 0
 362 550 250 438 250 300 c 2
 250 -150 l 1
 50 -150 l 1
 50 300 l 2
 50 419 97 534 182 618 c 0
 266 703 381 750 500 750 c 0xb8
EndSplineSet
Validated: 1
EndChar

StartChar: O
Encoding: 48 79 25
Width: 1000
VWidth: 0
HStem: -150 200<400.628 599.372> 550 200<400.628 599.372>
VStem: 50 200<200.628 399.372> 750 200<200.628 399.372>
LayerCount: 2
Fore
SplineSet
500 750 m 0
 748 750 950 548 950 300 c 0
 950 52 748 -150 500 -150 c 0
 252 -150 50 52 50 300 c 0
 50 548 252 750 500 750 c 0
500 550 m 0
 362 550 250 438 250 300 c 0
 250 162 362 50 500 50 c 0
 638 50 750 162 750 300 c 0
 750 438 638 550 500 550 c 0
EndSplineSet
Validated: 1
EndChar

StartChar: P
Encoding: 49 80 26
Width: 1000
VWidth: 0
HStem: -150 21G<0 250> -150 21G<0 250> 300 200<250 750> 550 200<250 750>
VStem: 0 250<-150 50> 50 200<50 300 500 550>
LayerCount: 2
Fore
SplineSet
50 750 m 1xb4
 950 750 l 1
 950 300 l 1
 250 300 l 1xb4
 250 -150 l 1
 0 -150 l 1
 0 50 l 1xb8
 50 50 l 1
 50 750 l 1xb4
250 550 m 1
 250 500 l 1
 750 500 l 1
 750 550 l 1
 250 550 l 1
EndSplineSet
Validated: 1
EndChar

StartChar: Q
Encoding: 50 81 27
Width: 1000
VWidth: 0
HStem: -150 21G<440.5 500> -150 21G<440.5 500> 550 200<401.931 598.069>
VStem: 50 200<201.931 398.069> 750 200<201.524 398.069>
LayerCount: 2
Fore
SplineSet
500 750 m 0xb8
 619 750 734 703 818 618 c 0
 903 534 950 419 950 300 c 0
 950 266 947 233 939 200 c 1
 729 200 l 1
 743 232 750 266 750 300 c 0
 750 438 638 550 500 550 c 0
 362 550 250 438 250 300 c 0
 250 162 362 50 500 50 c 1
 500 -150 l 1
 381 -150 266 -103 182 -18 c 0
 97 66 50 181 50 300 c 0
 50 419 97 534 182 618 c 0
 266 703 381 750 500 750 c 0xb8
653 280 m 1
 850 50 l 1
 874 50 l 1
 832 -13 774 -65 707 -100 c 1
 512 127 l 1
 535 196 586 252 653 280 c 1
EndSplineSet
Validated: 1
EndChar

StartChar: R
Encoding: 51 82 28
Width: 1000
VWidth: 0
HStem: -150 21G<50 250 732.857 950> -150 21G<50 250 732.857 950> 550 200<0 50 250 597.281>
VStem: 50 200<-150 550> 750 200<201.501 398.069>
LayerCount: 2
Fore
SplineSet
0 750 m 1xb8
 500 750 l 2
 619 750 734 703 818 618 c 0
 903 534 950 419 950 300 c 0
 950 266 946 233 939 200 c 1
 729 200 l 1
 743 231 750 264 750 300 c 0
 750 438 638 550 500 550 c 2
 250 550 l 1
 250 -150 l 1
 50 -150 l 1
 50 550 l 1
 0 550 l 1
 0 750 l 1xb8
727 194 m 1
 850 50 l 1
 950 50 l 1
 950 -150 l 1
 750 -150 l 1
 570 60 l 1
 639 80 696 129 727 194 c 1
EndSplineSet
Validated: 1
EndChar

StartChar: S
Encoding: 52 83 29
Width: 1000
VWidth: 0
HStem: -150 200<50 750> 100 200<250 750> 550 200<250 1000>
VStem: 50 200<300 550>
LayerCount: 2
Fore
SplineSet
50 750 m 1
 1000 750 l 1
 1000 550 l 1
 250 550 l 1
 250 300 l 1
 950 300 l 1
 950 -150 l 1
 50 -150 l 1
 50 50 l 1
 750 50 l 1
 750 100 l 1
 50 100 l 1
 50 750 l 1
EndSplineSet
Validated: 1
EndChar

StartChar: T
Encoding: 53 84 30
Width: 1000
VWidth: 0
HStem: -150 21G<483 517> -150 21G<483 517> 550 200<50 400 600 950>
VStem: 400 200<-143.553 550>
LayerCount: 2
Fore
SplineSet
50 750 m 1xb0
 950 750 l 1
 950 550 l 1
 600 550 l 1
 600 -139 l 1
 567 -147 534 -150 500 -150 c 0
 466 -150 433 -147 400 -139 c 1
 400 550 l 1
 50 550 l 1
 50 750 l 1xb0
EndSplineSet
Validated: 1
EndChar

StartChar: U
Encoding: 54 85 31
Width: 1000
VWidth: 0
HStem: -150 200<401.931 598.069> 730 20G<50 250 750 950>
VStem: 50 200<202.719 750> 750 200<202.719 750>
LayerCount: 2
Fore
SplineSet
500 -150 m 0
 381 -150 266 -103 182 -18 c 0
 97 66 50 181 50 300 c 2
 50 750 l 1
 250 750 l 1
 250 300 l 2
 250 162 362 50 500 50 c 0
 638 50 750 162 750 300 c 2
 750 750 l 1
 950 750 l 1
 950 300 l 2
 950 181 903 66 818 -18 c 0
 734 -103 619 -150 500 -150 c 0
EndSplineSet
Validated: 1
EndChar

StartChar: V
Encoding: 55 86 32
Width: 1000
VWidth: 0
HStem: -150 21G<50 267.143> -150 21G<50 267.143> 730 20G<50 250 732.847 950>
VStem: 50 200<167 750>
LayerCount: 2
Fore
SplineSet
950 750 m 1xb0
 950 550 l 1
 850 550 l 1
 250 -150 l 1
 50 -150 l 1
 50 750 l 1
 250 750 l 1
 250 167 l 1
 750 750 l 1
 950 750 l 1xb0
EndSplineSet
Validated: 1
EndChar

StartChar: W
Encoding: 56 87 33
Width: 1000
VWidth: 0
HStem: -150 200<0 50 250 400 600 750> 730 20G<50 250 483 517 750 950>
VStem: 50 200<50 750> 400 200<50 743.553> 750 200<-200 -150 50 750>
CounterMasks: 1 38
LayerCount: 2
Fore
SplineSet
50 750 m 1
 250 750 l 1
 250 50 l 1
 400 50 l 1
 400 739 l 1
 433 747 466 750 500 750 c 0
 534 750 567 747 600 739 c 1
 600 50 l 1
 750 50 l 1
 750 750 l 1
 950 750 l 1
 950 -200 l 1
 750 -200 l 1
 750 -150 l 1
 0 -150 l 1
 0 50 l 1
 50 50 l 1
 50 750 l 1
EndSplineSet
Validated: 1
EndChar

StartChar: X
Encoding: 57 88 34
Width: 1000
VWidth: 0
HStem: -150 200<50 150 850 950> 550 200<50 150 850 950>
LayerCount: 2
Fore
SplineSet
50 750 m 1
 250 750 l 1
 500 458 l 1
 750 750 l 1
 950 750 l 1
 950 550 l 1
 850 550 l 1
 636 300 l 1
 850 50 l 1
 950 50 l 1
 950 -150 l 1
 750 -150 l 1
 500 142 l 1
 250 -150 l 1
 50 -150 l 1
 50 50 l 1
 150 50 l 1
 364 300 l 1
 150 550 l 1
 50 550 l 1
 50 750 l 1
EndSplineSet
Validated: 1
EndChar

StartChar: Y
Encoding: 58 89 35
Width: 1000
VWidth: 0
HStem: -150 200<50 597.281> 730 20G<50 267.184 750 950>
VStem: 750 200<202.719 750>
LayerCount: 2
Fore
SplineSet
50 750 m 1
 250 750 l 1
 488 473 l 1
 465 404 414 348 347 320 c 1
 150 550 l 1
 50 550 l 1
 50 750 l 1
750 750 m 1
 950 750 l 1
 950 300 l 2
 950 181 903 66 818 -18 c 0
 734 -103 619 -150 500 -150 c 2
 50 -150 l 1
 50 50 l 1
 200 50 350 50 500 50 c 0
 638 50 750 162 750 300 c 2
 750 750 l 1
EndSplineSet
Validated: 1
EndChar

StartChar: Z
Encoding: 59 90 36
Width: 1000
VWidth: 0
HStem: -150 200<50 150 421 950> 550 200<50 579 850 950>
LayerCount: 2
Fore
SplineSet
50 550 m 1
 50 750 l 1
 950 750 l 1
 950 550 l 1
 850 550 l 1
 421 50 l 1
 950 50 l 1
 950 -150 l 1
 50 -150 l 1
 50 50 l 1
 150 50 l 1
 579 550 l 1
 50 550 l 1
EndSplineSet
Validated: 1
EndChar

